<?xml version="1.0" encoding="UTF-8"?>
<!DOCTYPE svg PUBLIC "-//W3C//DTD SVG 1.1//EN" "http://www.w3.org/Graphics/SVG/1.1/DTD/svg11.dtd">
<svg xmlns="http://www.w3.org/2000/svg" version="1.1" width="792px" height="617px" style="shape-rendering:geometricPrecision; text-rendering:geometricPrecision; image-rendering:optimizeQuality; fill-rule:evenodd; clip-rule:evenodd" xmlns:xlink="http://www.w3.org/1999/xlink">
<g><path style="opacity:1" fill="#fefffe" d="M 364.5,0.5 C 396.229,0.0221876 427.896,0.522188 459.5,2C 465.492,4.65871 469.325,9.15871 471,15.5C 471.933,26.9056 471.6,38.239 470,49.5C 467.432,55.543 462.932,59.3764 456.5,61C 425.5,61.6667 394.5,61.6667 363.5,61C 360.339,59.5869 357.339,57.9203 354.5,56C 352.873,53.2458 351.373,50.4125 350,47.5C 349.833,42 349.667,36.5 349.5,31C 346.097,16.2406 351.097,6.07391 364.5,0.5 Z"/></g>
<g><path style="opacity:1" fill="#fefffe" d="M 339.5,56.5 C 340.873,56.3433 342.207,56.51 343.5,57C 348.809,65.334 356.476,70.1674 366.5,71.5C 367.479,83.4494 367.813,95.4494 367.5,107.5C 334.725,116.437 307.225,133.77 285,159.5C 281.715,164.454 278.048,169.12 274,173.5C 273.416,152.986 272.583,132.486 271.5,112C 271.494,109.7 271.994,107.534 273,105.5C 283.585,89.9169 297.085,77.4169 313.5,68C 322.109,63.8597 330.776,60.0263 339.5,56.5 Z"/></g>
<g><path style="opacity:1" fill="#fefffe" d="M 477.5,56.5 C 505.591,63.9651 528.424,79.2984 546,102.5C 547.303,104.94 548.47,107.44 549.5,110C 548.445,131.137 547.612,152.303 547,173.5C 523.573,141.257 492.739,119.257 454.5,107.5C 453.334,95.8476 453.167,84.1809 454,72.5C 459.218,70.7518 464.384,68.5851 469.5,66C 472.759,63.3054 475.425,60.1388 477.5,56.5 Z"/></g>
<g><path style="opacity:1" fill="#fefffe" d="M 377.5,71.5 C 399.5,71.5 421.5,71.5 443.5,71.5C 443.5,82.5 443.5,93.5 443.5,104.5C 432.566,102.894 421.566,101.894 410.5,101.5C 399.43,102.062 388.43,102.895 377.5,104C 376.177,93.1668 376.177,82.3334 377.5,71.5 Z"/></g>
<g><path style="opacity:1" fill="#fefffe" d="M 399.5,111.5 C 456.996,109.836 502.83,131.836 537,177.5C 545.227,189.788 551.727,202.955 556.5,217C 535.492,217.833 514.492,217.666 493.5,216.5C 466.863,177.222 430.196,162.722 383.5,173C 359.422,180.538 340.755,195.038 327.5,216.5C 306.5,217.833 285.5,217.833 264.5,216.5C 288.436,154.371 333.436,119.371 399.5,111.5 Z"/></g>
<g><path style="opacity:1" fill="#fefffe" d="M 397.5,179.5 C 432.791,176.296 460.791,188.796 481.5,217C 434.163,217.833 386.83,217.667 339.5,216.5C 353.629,196.097 372.962,183.764 397.5,179.5 Z"/></g>
<g><path style="opacity:1" fill="#fefffe" d="M 53.5,220.5 C 281.833,220.5 510.167,220.5 738.5,220.5C 738.5,264.5 738.5,308.5 738.5,352.5C 510.167,352.5 281.833,352.5 53.5,352.5C 53.5,308.5 53.5,264.5 53.5,220.5 Z M 235.5,245.5 C 236.721,246.028 237.887,246.695 239,247.5C 239.676,252.871 239.509,258.204 238.5,263.5C 234.625,264.126 232.791,262.459 233,258.5C 232.333,254.833 232.333,251.167 233,247.5C 233.995,246.934 234.828,246.267 235.5,245.5 Z M 599.5,245.5 C 602.617,246.725 603.95,249.059 603.5,252.5C 603.194,255.532 602.694,258.532 602,261.5C 600.688,263.658 599.022,263.991 597,262.5C 595.605,257.164 595.439,251.831 596.5,246.5C 597.791,246.737 598.791,246.404 599.5,245.5 Z M 224.5,246.5 C 229.745,245.579 231.745,247.746 230.5,253C 230.577,256.333 229.91,259.5 228.5,262.5C 227.311,263.429 225.978,263.762 224.5,263.5C 223.836,259.846 223.169,256.18 222.5,252.5C 222.611,250.286 223.278,248.286 224.5,246.5 Z M 534.5,246.5 C 546.293,245.699 557.293,248.199 567.5,254C 575.419,262.39 577.919,272.223 575,283.5C 571.575,293.254 564.742,299.087 554.5,301C 546.173,302.891 537.84,302.891 529.5,301C 509.081,294.383 502.914,281.216 511,261.5C 517.22,253.816 525.053,248.816 534.5,246.5 Z M 605.5,246.5 C 607.5,246.5 609.5,246.5 611.5,246.5C 612.923,251.87 612.756,257.203 611,262.5C 609.644,263.38 608.144,263.714 606.5,263.5C 604.471,257.916 604.138,252.25 605.5,246.5 Z M 264.5,247.5 C 283.174,247.667 301.841,248.167 320.5,249C 321.767,250.796 321.767,252.629 320.5,254.5C 318.077,255.729 315.577,256.729 313,257.5C 311.971,268.856 311.805,280.189 312.5,291.5C 315.518,291.335 318.518,291.502 321.5,292C 323.78,298.089 323.947,304.255 322,310.5C 319.358,312.059 317.025,311.725 315,309.5C 314.047,306.568 313.547,303.568 313.5,300.5C 296.525,300.699 279.525,300.865 262.5,301C 261.083,303.983 260.25,307.15 260,310.5C 258,311.833 256,311.833 254,310.5C 252.296,304.224 252.129,297.89 253.5,291.5C 257.226,291.256 260.393,289.923 263,287.5C 268.169,277.823 271.003,267.49 271.5,256.5C 267.967,256.495 264.8,255.495 262,253.5C 261.034,250.66 261.867,248.66 264.5,247.5 Z M 340.5,247.5 C 359.458,247.533 378.458,247.699 397.5,248C 398,248.5 398.5,249 399,249.5C 399.804,254.751 399.637,259.918 398.5,265C 396.5,265.667 394.5,265.667 392.5,265C 391.35,262.538 390.017,260.204 388.5,258C 378.833,257.333 369.167,257.333 359.5,258C 358.544,261.394 358.211,264.894 358.5,268.5C 367.173,268.334 375.84,268.5 384.5,269C 385.916,271.455 386.25,273.955 385.5,276.5C 376.805,277.193 368.139,277.86 359.5,278.5C 358.205,282.38 358.205,286.214 359.5,290C 369.833,290.667 380.167,290.667 390.5,290C 391.42,287.165 392.42,284.332 393.5,281.5C 395.135,280.319 396.802,280.319 398.5,281.5C 399.993,287.432 400.493,293.432 400,299.5C 380.232,300.825 360.398,300.825 340.5,299.5C 339.167,297.5 339.167,295.5 340.5,293.5C 343.043,292.197 345.71,291.197 348.5,290.5C 349.509,279.499 349.343,268.499 348,257.5C 345.57,256.035 343.07,254.702 340.5,253.5C 339.181,251.468 339.181,249.468 340.5,247.5 Z M 487.5,247.5 C 488.822,247.33 489.989,247.663 491,248.5C 491.667,250.5 491.667,252.5 491,254.5C 487.721,256.191 484.221,257.191 480.5,257.5C 480.257,268.864 480.59,280.198 481.5,291.5C 484.985,291.691 488.151,292.691 491,294.5C 491.825,296.701 491.325,298.534 489.5,300C 480.84,300.5 472.173,300.666 463.5,300.5C 463.337,298.143 463.503,295.81 464,293.5C 466.382,292.446 468.882,291.779 471.5,291.5C 471.459,280.519 471.126,269.685 470.5,259C 459.505,258.5 448.505,258.333 437.5,258.5C 437.5,269.5 437.5,280.5 437.5,291.5C 440.609,291.655 443.609,292.322 446.5,293.5C 447.833,295.5 447.833,297.5 446.5,299.5C 438.503,300.262 430.503,300.928 422.5,301.5C 417.457,300.207 416.457,297.374 419.5,293C 422.117,292.178 424.784,291.678 427.5,291.5C 427.408,280.875 427.408,270.375 427.5,260C 425.078,257.84 422.244,256.34 419,255.5C 418.192,253.421 418.359,251.421 419.5,249.5C 442.294,248.843 464.961,248.177 487.5,247.5 Z"/></g>
<g><path style="opacity:1" fill="#fefffe" d="M 282.5,257.5 C 289.09,257.189 295.59,257.522 302,258.5C 302.5,269.495 302.667,280.495 302.5,291.5C 293.115,290.994 283.782,290.994 274.5,291.5C 274.167,290.833 273.833,290.167 273.5,289.5C 277.332,279.013 280.332,268.347 282.5,257.5 Z"/></g>
<g><path style="opacity:1" fill="#fefffe" d="M 537.5,257.5 C 547.574,255.474 556.074,258.141 563,265.5C 568.904,278.86 564.737,287.36 550.5,291C 539.276,292.485 529.109,289.985 520,283.5C 515.955,272.617 519.122,264.783 529.5,260C 532.31,259.218 534.977,258.384 537.5,257.5 Z"/></g>
<g><path style="opacity:1" fill="#fefffe" d="M 1.5,267.5 C 12.8333,267.5 24.1667,267.5 35.5,267.5C 35.3334,299.168 35.5,330.835 36,362.5C 49.0872,370.292 61.9205,378.459 74.5,387C 50.1689,387.5 25.8356,387.667 1.5,387.5C 9.15953,367.511 16.8262,347.511 24.5,327.5C 16.8262,307.489 9.15953,287.489 1.5,267.5 Z"/></g>
<g><path style="opacity:1" fill="#fefffe" d="M 757.5,267.5 C 768.5,267.5 779.5,267.5 790.5,267.5C 782.978,287.397 775.644,307.397 768.5,327.5C 768.594,329.923 769.094,332.256 770,334.5C 777.535,351.945 784.368,369.611 790.5,387.5C 766.164,387.667 741.831,387.5 717.5,387C 730.583,378.708 743.749,370.541 757,362.5C 757.5,330.835 757.667,299.168 757.5,267.5 Z"/></g>
<g><path style="opacity:1" fill="#fefffe" d="M 262.5,355.5 C 266.514,355.334 270.514,355.501 274.5,356C 278.906,363.076 284.072,369.576 290,375.5C 286.963,395.857 283.463,416.191 279.5,436.5C 279.891,439.781 281.224,442.615 283.5,445C 296.989,450.663 310.656,455.829 324.5,460.5C 329.352,459.813 332.519,457.146 334,452.5C 336.509,440.132 339.175,427.799 342,415.5C 343.049,414.483 344.216,414.316 345.5,415C 351.546,418.095 357.879,420.429 364.5,422C 365.578,422.674 366.245,423.674 366.5,425C 364.113,438.822 361.78,452.656 359.5,466.5C 360.082,470.92 362.415,474.087 366.5,476C 380.97,481.213 395.637,485.713 410.5,489.5C 425.363,485.713 440.03,481.213 454.5,476C 458.801,474.034 461.134,470.701 461.5,466C 458.836,451.853 456.669,437.687 455,423.5C 462.671,420.997 470.171,417.997 477.5,414.5C 478.971,415.381 479.804,416.714 480,418.5C 482.411,430.554 485.078,442.554 488,454.5C 491.717,460.567 496.884,462.067 503.5,459C 515.313,454.258 526.98,449.258 538.5,444C 541.36,440.319 542.193,436.152 541,431.5C 537.565,413.492 534.065,395.492 530.5,377.5C 536.064,370.721 541.397,363.721 546.5,356.5C 550.459,355.34 554.459,355.173 558.5,356C 565.207,390.739 571.54,425.572 577.5,460.5C 521.923,480.79 466.256,500.79 410.5,520.5C 354.831,500.149 299.164,480.149 243.5,460.5C 249.511,425.432 255.845,390.432 262.5,355.5 Z"/></g>
<g><path style="opacity:1" fill="#fefffe" d="M 286.5,356.5 C 317.331,355.336 348.331,355.169 379.5,356C 400.487,363.293 421.487,363.293 442.5,356C 473.167,355.333 503.833,355.333 534.5,356C 492.119,409.155 437.452,428.489 370.5,414C 336.03,403.989 308.03,384.822 286.5,356.5 Z"/></g>
<g><path style="opacity:0.131" fill="#666666" d="M 66.5,365.5 C 66.8966,364.475 67.5632,364.308 68.5,365C 67.9056,365.464 67.2389,365.631 66.5,365.5 Z"/></g>
<g><path style="opacity:1" fill="#fefffe" d="M 70.5,366.5 C 76.6446,365.51 82.9779,365.177 89.5,365.5C 89.8242,369.555 89.4909,373.555 88.5,377.5C 82.4721,373.822 76.4721,370.156 70.5,366.5 Z"/></g>
<g><path style="opacity:1" fill="#fefffe" d="M 702.5,365.5 C 709.175,365.334 715.842,365.5 722.5,366C 716.499,370.336 710.166,374.169 703.5,377.5C 702.509,373.555 702.176,369.555 702.5,365.5 Z"/></g>
<g><path style="opacity:1" fill="#fefffe" d="M 520.5,385.5 C 521.117,385.611 521.617,385.944 522,386.5C 525.442,403.158 528.442,419.825 531,436.5C 520.082,441.362 509.082,446.028 498,450.5C 496.754,447.639 495.754,444.639 495,441.5C 492.502,430.526 490.502,419.526 489,408.5C 500.524,402.13 511.024,394.463 520.5,385.5 Z"/></g>
<g><path style="opacity:1" fill="#fefffe" d="M 298.5,386.5 C 304.465,389.274 309.798,393.108 314.5,398C 320.25,401.626 326.084,405.126 332,408.5C 330.578,422.854 327.578,436.854 323,450.5C 311.99,445.828 300.99,441.161 290,436.5C 292.501,419.826 295.335,403.159 298.5,386.5 Z"/></g>
<g><path style="opacity:1" fill="#fefffe" d="M 376.5,425.5 C 399.163,429.481 421.829,429.481 444.5,425.5C 447.132,439.147 449.298,452.813 451,466.5C 437.609,471.13 424.109,475.464 410.5,479.5C 396.88,475.46 383.38,471.126 370,466.5C 371.706,452.796 373.873,439.13 376.5,425.5 Z"/></g>
<g><path style="opacity:1" fill="#fefffe" d="M 271.5,481.5 C 284.557,485.63 297.557,489.963 310.5,494.5C 310.245,497.016 309.411,499.35 308,501.5C 298.546,518.911 288.713,536.078 278.5,553C 263.504,553.5 248.504,553.667 233.5,553.5C 234.781,548.938 236.614,544.604 239,540.5C 250.353,521.127 261.187,501.461 271.5,481.5 Z"/></g>
<g><path style="opacity:1" fill="#fefffe" d="M 545.5,481.5 C 546.978,481.238 548.311,481.571 549.5,482.5C 562.975,505.786 575.642,529.453 587.5,553.5C 572.163,553.667 556.83,553.5 541.5,553C 530.527,533.855 520.194,514.355 510.5,494.5C 522.462,490.738 534.128,486.404 545.5,481.5 Z"/></g>
<g><path style="opacity:1" fill="#fefffe" d="M 398.5,571.5 C 411.166,571.682 423.832,571.682 436.5,571.5C 436.5,573.167 436.5,574.833 436.5,576.5C 434.436,576.687 432.436,577.187 430.5,578C 429.483,579.049 429.316,580.216 430,581.5C 433.611,590.391 436.945,599.391 440,608.5C 442.738,609.482 445.572,610.148 448.5,610.5C 448.714,612.144 448.38,613.644 447.5,615C 439.841,615.5 432.174,615.666 424.5,615.5C 424.286,613.856 424.62,612.356 425.5,611C 428.636,610.685 431.303,609.518 433.5,607.5C 432.399,605.358 431.399,603.192 430.5,601C 429,600.833 427.5,600.667 426,600.5C 418.464,600.536 410.964,601.036 403.5,602C 400.314,607.126 401.814,609.959 408,610.5C 408.49,611.793 408.657,613.127 408.5,614.5C 401.523,615.457 394.523,615.623 387.5,615C 385.893,613.951 385.227,612.451 385.5,610.5C 388.579,610.196 391.413,609.196 394,607.5C 398.001,597.664 401.501,587.664 404.5,577.5C 402.473,577.662 400.473,577.495 398.5,577C 395.892,575.063 395.892,573.23 398.5,571.5 Z M 412.5,578.5 C 415.518,578.335 418.518,578.502 421.5,579C 422,579.5 422.5,580 423,580.5C 424.812,585.111 426.312,589.777 427.5,594.5C 420.535,595.341 413.535,595.674 406.5,595.5C 407.32,589.37 409.32,583.704 412.5,578.5 Z"/></g>
<g><path style="opacity:1" fill="#fefffe" d="M 330.5,572.5 C 346.503,572.333 362.503,572.5 378.5,573C 379.626,576.744 379.793,580.577 379,584.5C 377.667,585.833 376.333,585.833 375,584.5C 374.163,582.649 373.329,580.816 372.5,579C 363.173,578.5 353.839,578.334 344.5,578.5C 344.5,582.167 344.5,585.833 344.5,589.5C 355.91,589.067 367.244,589.567 378.5,591C 384.197,596.4 385.03,602.566 381,609.5C 377.628,612.269 373.795,614.102 369.5,615C 356.171,615.5 342.837,615.667 329.5,615.5C 329.5,613.833 329.5,612.167 329.5,610.5C 331.937,610.244 334.271,609.577 336.5,608.5C 337.499,598.188 337.832,587.855 337.5,577.5C 335.473,577.662 333.473,577.495 331.5,577C 330.62,575.644 330.286,574.144 330.5,572.5 Z M 348.5,594.5 C 355.841,594.334 363.174,594.5 370.5,595C 377.538,596.727 378.871,600.393 374.5,606C 372.608,606.973 370.608,607.64 368.5,608C 360.507,608.5 352.507,608.666 344.5,608.5C 344.5,604.167 344.5,599.833 344.5,595.5C 346.099,595.768 347.432,595.434 348.5,594.5 Z"/></g>
<g><path style="opacity:1" fill="#fefffe" d="M 453.5,572.5 C 467.892,572.07 482.226,572.57 496.5,574C 505.824,578.416 507.99,585.249 503,594.5C 501.269,596.617 499.102,598.117 496.5,599C 487.241,600.251 477.908,600.918 468.5,601C 467.424,602.726 467.257,604.559 468,606.5C 469.943,608.645 472.276,610.312 475,611.5C 475.684,612.784 475.517,613.951 474.5,615C 467.508,615.5 460.508,615.666 453.5,615.5C 453.5,613.833 453.5,612.167 453.5,610.5C 455.677,610.414 457.677,609.747 459.5,608.5C 460.665,598.851 460.832,589.184 460,579.5C 457.546,578.802 455.213,577.802 453,576.5C 452.421,575.072 452.588,573.738 453.5,572.5 Z M 476.5,578.5 C 482.964,578.569 489.297,579.403 495.5,581C 500.644,588.262 498.644,592.596 489.5,594C 482.433,594.839 475.433,594.506 468.5,593C 467.371,588.921 467.204,584.755 468,580.5C 470.939,579.872 473.772,579.205 476.5,578.5 Z"/></g>
</svg>
