<svg xmlns="http://www.w3.org/2000/svg" width="148" height="148" viewBox="0 0 148 148" version="1.1"><path d="M 16 30 L 16 44 30 44 L 44 44 44 30 L 44 16 30 16 L 16 16 16 30 M 48 22 L 48 28 50 28 L 52 28 52 30 L 52 32 50 32 L 48 32 48 34 L 48 36 50 36 L 52 36 52 38 L 52 40 50 40 L 48 40 48 42 L 48 44 50 44 L 52 44 52 46 L 52 48 40 48 L 28 48 28 52 L 28 56 22 56 L 16 56 16 60 L 16 64 18 64 L 20 64 20 68 L 20 72 18 72 L 16 72 16 74 L 16 76 18 76 L 20 76 20 78 L 20 80 18 80 L 16 80 16 82 L 16 84 20 84 L 24 84 24 90 L 24 96 26 96 L 28 96 28 94 L 28 92 30 92 L 32 92 32 90 L 32 88 30 88 L 28 88 28 86 L 28 84 26 84 L 24 84 24 82 L 24 80 28 80 L 32 80 32 82 L 32 84 34 84 L 36 84 36 80 L 36 76 40 76 L 44 76 44 78 L 44 80 42 80 L 40 80 40 82 L 40 84 42 84 L 44 84 44 82 L 44 80 46 80 L 48 80 48 82 L 48 84 50 84 L 52 84 52 86 L 52 88 54 88 L 56 88 56 90 L 56 92 54 92 L 52 92 52 94 L 52 96 50 96 L 48 96 48 108 L 48 120 52 120 L 56 120 56 122 L 56 124 54 124 L 52 124 52 126 L 52 128 50 128 L 48 128 48 130 L 48 132 50 132 L 52 132 52 130 L 52 128 54 128 L 56 128 56 130 L 56 132 58 132 L 60 132 60 130 L 60 128 58 128 L 56 128 56 126 L 56 124 58 124 L 60 124 60 122 L 60 120 58 120 L 56 120 56 118 L 56 116 60 116 L 64 116 64 114 L 64 112 66 112 L 68 112 68 116 L 68 120 66 120 L 64 120 64 122 L 64 124 66 124 L 68 124 68 122 L 68 120 70 120 L 72 120 72 122 L 72 124 74 124 L 76 124 76 126 L 76 128 78 128 L 80 128 80 126 L 80 124 82 124 L 84 124 84 122 L 84 120 90 120 L 96 120 96 122 L 96 124 98 124 L 100 124 100 126 L 100 128 98 128 L 96 128 96 130 L 96 132 98 132 L 100 132 100 130 L 100 128 102 128 L 104 128 104 130 L 104 132 110 132 L 116 132 116 130 L 116 128 120 128 L 124 128 124 126 L 124 124 126 124 L 128 124 128 126 L 128 128 130 128 L 132 128 132 124 L 132 120 130 120 L 128 120 128 118 L 128 116 126 116 L 124 116 124 118 L 124 120 122 120 L 120 120 120 122 L 120 124 118 124 L 116 124 116 122 L 116 120 112 120 L 108 120 108 122 L 108 124 112 124 L 116 124 116 126 L 116 128 110 128 L 104 128 104 122 L 104 116 112 116 L 120 116 120 114 L 120 112 118 112 L 116 112 116 110 L 116 108 118 108 L 120 108 120 104 L 120 100 124 100 L 128 100 128 98 L 128 96 126 96 L 124 96 124 94 L 124 92 122 92 L 120 92 120 90 L 120 88 124 88 L 128 88 128 90 L 128 92 130 92 L 132 92 132 90 L 132 88 130 88 L 128 88 128 86 L 128 84 124 84 L 120 84 120 82 L 120 80 122 80 L 124 80 124 76 L 124 72 126 72 L 128 72 128 76 L 128 80 130 80 L 132 80 132 70 L 132 60 130 60 L 128 60 128 64 L 128 68 120 68 L 112 68 112 66 L 112 64 110 64 L 108 64 108 62 L 108 60 106 60 L 104 60 104 68 L 104 76 102 76 L 100 76 100 68 L 100 60 92 60 L 84 60 84 62 L 84 64 90 64 L 96 64 96 68 L 96 72 94 72 L 92 72 92 70 L 92 68 88 68 L 84 68 84 70 L 84 72 86 72 L 88 72 88 76 L 88 80 90 80 L 92 80 92 78 L 92 76 96 76 L 100 76 100 78 L 100 80 104 80 L 108 80 108 74 L 108 68 110 68 L 112 68 112 70 L 112 72 116 72 L 120 72 120 76 L 120 80 118 80 L 116 80 116 78 L 116 76 114 76 L 112 76 112 78 L 112 80 114 80 L 116 80 116 82 L 116 84 114 84 L 112 84 112 90 L 112 96 106 96 L 100 96 100 94 L 100 92 104 92 L 108 92 108 90 L 108 88 106 88 L 104 88 104 86 L 104 84 98 84 L 92 84 92 88 L 92 92 90 92 L 88 92 88 88 L 88 84 86 84 L 84 84 84 86 L 84 88 82 88 L 80 88 80 90 L 80 92 78 92 L 76 92 76 90 L 76 88 72 88 L 68 88 68 92 L 68 96 64 96 L 60 96 60 94 L 60 92 62 92 L 64 92 64 90 L 64 88 60 88 L 56 88 56 84 L 56 80 58 80 L 60 80 60 82 L 60 84 62 84 L 64 84 64 82 L 64 80 62 80 L 60 80 60 78 L 60 76 62 76 L 64 76 64 74 L 64 72 66 72 L 68 72 68 70 L 68 68 72 68 L 76 68 76 66 L 76 64 78 64 L 80 64 80 62 L 80 60 78 60 L 76 60 76 56 L 76 52 80 52 L 84 52 84 54 L 84 56 90 56 L 96 56 96 54 L 96 52 94 52 L 92 52 92 50 L 92 48 94 48 L 96 48 96 46 L 96 44 98 44 L 100 44 100 40 L 100 36 98 36 L 96 36 96 34 L 96 32 98 32 L 100 32 100 28 L 100 24 98 24 L 96 24 96 22 L 96 20 94 20 L 92 20 92 18 L 92 16 90 16 L 88 16 88 18 L 88 20 86 20 L 84 20 84 22 L 84 24 86 24 L 88 24 88 26 L 88 28 86 28 L 84 28 84 34 L 84 40 82 40 L 80 40 80 42 L 80 44 82 44 L 84 44 84 42 L 84 40 86 40 L 88 40 88 42 L 88 44 90 44 L 92 44 92 46 L 92 48 84 48 L 76 48 76 42 L 76 36 78 36 L 80 36 80 32 L 80 28 78 28 L 76 28 76 26 L 76 24 78 24 L 80 24 80 20 L 80 16 74 16 L 68 16 68 22 L 68 28 70 28 L 72 28 72 30 L 72 32 70 32 L 68 32 68 34 L 68 36 66 36 L 64 36 64 32 L 64 28 62 28 L 60 28 60 30 L 60 32 58 32 L 56 32 56 30 L 56 28 54 28 L 52 28 52 24 L 52 20 58 20 L 64 20 64 18 L 64 16 56 16 L 48 16 48 22 M 104 30 L 104 44 118 44 L 132 44 132 30 L 132 16 118 16 L 104 16 104 30 M 20 30 L 20 40 30 40 L 40 40 40 30 L 40 20 30 20 L 20 20 20 30 M 88 22 L 88 24 90 24 L 92 24 92 22 L 92 20 90 20 L 88 20 88 22 M 108 30 L 108 40 118 40 L 128 40 128 30 L 128 20 118 20 L 108 20 108 30 M 24 30 L 24 36 30 36 L 36 36 36 30 L 36 24 30 24 L 24 24 24 30 M 112 30 L 112 36 118 36 L 124 36 124 30 L 124 24 118 24 L 112 24 112 30 M 88 34 L 88 40 90 40 L 92 40 92 42 L 92 44 94 44 L 96 44 96 40 L 96 36 94 36 L 92 36 92 34 L 92 32 94 32 L 96 32 96 30 L 96 28 92 28 L 88 28 88 34 M 72 34 L 72 36 74 36 L 76 36 76 34 L 76 32 74 32 L 72 32 72 34 M 56 38 L 56 40 54 40 L 52 40 52 42 L 52 44 54 44 L 56 44 56 42 L 56 40 58 40 L 60 40 60 46 L 60 52 56 52 L 52 52 52 56 L 52 60 50 60 L 48 60 48 56 L 48 52 42 52 L 36 52 36 54 L 36 56 34 56 L 32 56 32 58 L 32 60 28 60 L 24 60 24 64 L 24 68 26 68 L 28 68 28 70 L 28 72 26 72 L 24 72 24 74 L 24 76 30 76 L 36 76 36 72 L 36 68 38 68 L 40 68 40 70 L 40 72 42 72 L 44 72 44 70 L 44 68 42 68 L 40 68 40 66 L 40 64 42 64 L 44 64 44 62 L 44 60 46 60 L 48 60 48 62 L 48 64 52 64 L 56 64 56 62 L 56 60 60 60 L 64 60 64 62 L 64 64 68 64 L 72 64 72 58 L 72 52 70 52 L 68 52 68 50 L 68 48 70 48 L 72 48 72 44 L 72 40 70 40 L 68 40 68 42 L 68 44 66 44 L 64 44 64 40 L 64 36 60 36 L 56 36 56 38 M 16 50 L 16 52 18 52 L 20 52 20 50 L 20 48 18 48 L 16 48 16 50 M 100 50 L 100 52 102 52 L 104 52 104 50 L 104 48 102 48 L 100 48 100 50 M 112 50 L 112 52 110 52 L 108 52 108 54 L 108 56 110 56 L 112 56 112 58 L 112 60 114 60 L 116 60 116 62 L 116 64 118 64 L 120 64 120 62 L 120 60 122 60 L 124 60 124 58 L 124 56 126 56 L 128 56 128 54 L 128 52 130 52 L 132 52 132 50 L 132 48 126 48 L 120 48 120 54 L 120 60 118 60 L 116 60 116 54 L 116 48 114 48 L 112 48 112 50 M 60 54 L 60 56 64 56 L 68 56 68 54 L 68 52 64 52 L 60 52 60 54 M 36 58 L 36 60 34 60 L 32 60 32 62 L 32 64 36 64 L 40 64 40 62 L 40 60 42 60 L 44 60 44 58 L 44 56 40 56 L 36 56 36 58 M 52 74 L 52 80 54 80 L 56 80 56 74 L 56 68 54 68 L 52 68 52 74 M 60 70 L 60 72 62 72 L 64 72 64 70 L 64 68 62 68 L 60 68 60 70 M 72 74 L 72 76 70 76 L 68 76 68 78 L 68 80 72 80 L 76 80 76 82 L 76 84 78 84 L 80 84 80 82 L 80 80 82 80 L 84 80 84 78 L 84 76 82 76 L 80 76 80 74 L 80 72 76 72 L 72 72 72 74 M 76 78 L 76 80 78 80 L 80 80 80 78 L 80 76 78 76 L 76 76 76 78 M 116 86 L 116 88 118 88 L 120 88 120 86 L 120 84 118 84 L 116 84 116 86 M 36 92 L 36 96 34 96 L 32 96 32 98 L 32 100 34 100 L 36 100 36 98 L 36 96 38 96 L 40 96 40 98 L 40 100 42 100 L 44 100 44 98 L 44 96 42 96 L 40 96 40 94 L 40 92 44 92 L 48 92 48 90 L 48 88 42 88 L 36 88 36 92 M 72 104 L 72 116 74 116 L 76 116 76 120 L 76 124 78 124 L 80 124 80 120 L 80 116 78 116 L 76 116 76 114 L 76 112 78 112 L 80 112 80 110 L 80 108 78 108 L 76 108 76 106 L 76 104 78 104 L 80 104 80 102 L 80 100 82 100 L 84 100 84 98 L 84 96 86 96 L 88 96 88 98 L 88 100 90 100 L 92 100 92 98 L 92 96 94 96 L 96 96 96 94 L 96 92 94 92 L 92 92 92 94 L 92 96 90 96 L 88 96 88 94 L 88 92 86 92 L 84 92 84 94 L 84 96 80 96 L 76 96 76 94 L 76 92 74 92 L 72 92 72 104 M 52 98 L 52 100 56 100 L 60 100 60 98 L 60 96 56 96 L 52 96 52 98 M 64 102 L 64 104 58 104 L 52 104 52 108 L 52 112 54 112 L 56 112 56 110 L 56 108 58 108 L 60 108 60 110 L 60 112 62 112 L 64 112 64 110 L 64 108 66 108 L 68 108 68 104 L 68 100 66 100 L 64 100 64 102 M 100 106 L 100 112 106 112 L 112 112 112 106 L 112 100 106 100 L 100 100 100 106 M 16 118 L 16 132 30 132 L 44 132 44 118 L 44 104 30 104 L 16 104 16 118 M 88 108 L 88 112 86 112 L 84 112 84 114 L 84 116 88 116 L 92 116 92 110 L 92 104 90 104 L 88 104 88 108 M 104 106 L 104 108 106 108 L 108 108 108 106 L 108 104 106 104 L 104 104 104 106 M 20 118 L 20 128 30 128 L 40 128 40 118 L 40 108 30 108 L 20 108 20 118 M 124 110 L 124 112 128 112 L 132 112 132 110 L 132 108 128 108 L 124 108 124 110 M 24 118 L 24 124 30 124 L 36 124 36 118 L 36 112 30 112 L 24 112 24 118 M 96 118 L 96 120 98 120 L 100 120 100 118 L 100 116 98 116 L 96 116 96 118 M 88 126 L 88 128 86 128 L 84 128 84 130 L 84 132 88 132 L 92 132 92 128 L 92 124 90 124 L 88 124 88 126 M 64 130 L 64 132 66 132 L 68 132 68 130 L 68 128 66 128 L 64 128 64 130" stroke="none" fill="#040404" fill-rule="evenodd"/><path d="M 0 74.006 L 0 148.013 74.250 147.756 L 148.500 147.500 148.756 73.750 L 149.013 0 74.506 0 L 0 0 0 74.006 M 0.475 74.500 L 0.475 148.500 0.750 111.176 L 1.024 73.852 0.750 37.176 L 0.475 0.500 0.475 74.500 M 16 30 L 16 44 30 44 L 44 44 44 30 L 44 16 30 16 L 16 16 16 30 M 48 22 L 48 28 50 28 L 52 28 52 30 L 52 32 50 32 L 48 32 48 34 L 48 36 50 36 L 52 36 52 38 L 52 40 50 40 L 48 40 48 42 L 48 44 50 44 L 52 44 52 46 L 52 48 40 48 L 28 48 28 52 L 28 56 22 56 L 16 56 16 60 L 16 64 18 64 L 20 64 20 68 L 20 72 18 72 L 16 72 16 74 L 16 76 18 76 L 20 76 20 78 L 20 80 18 80 L 16 80 16 82 L 16 84 20 84 L 24 84 24 90 L 24 96 26 96 L 28 96 28 94 L 28 92 30 92 L 32 92 32 90 L 32 88 30 88 L 28 88 28 86 L 28 84 26 84 L 24 84 24 82 L 24 80 28 80 L 32 80 32 82 L 32 84 34 84 L 36 84 36 80 L 36 76 40 76 L 44 76 44 78 L 44 80 42 80 L 40 80 40 82 L 40 84 42 84 L 44 84 44 82 L 44 80 46 80 L 48 80 48 82 L 48 84 50 84 L 52 84 52 86 L 52 88 54 88 L 56 88 56 90 L 56 92 54 92 L 52 92 52 94 L 52 96 50 96 L 48 96 48 108 L 48 120 52 120 L 56 120 56 122 L 56 124 54 124 L 52 124 52 126 L 52 128 50 128 L 48 128 48 130 L 48 132 50 132 L 52 132 52 130 L 52 128 54 128 L 56 128 56 130 L 56 132 58 132 L 60 132 60 130 L 60 128 58 128 L 56 128 56 126 L 56 124 58 124 L 60 124 60 122 L 60 120 58 120 L 56 120 56 118 L 56 116 60 116 L 64 116 64 114 L 64 112 66 112 L 68 112 68 116 L 68 120 66 120 L 64 120 64 122 L 64 124 66 124 L 68 124 68 122 L 68 120 70 120 L 72 120 72 122 L 72 124 74 124 L 76 124 76 126 L 76 128 78 128 L 80 128 80 126 L 80 124 82 124 L 84 124 84 122 L 84 120 90 120 L 96 120 96 122 L 96 124 98 124 L 100 124 100 126 L 100 128 98 128 L 96 128 96 130 L 96 132 98 132 L 100 132 100 130 L 100 128 102 128 L 104 128 104 130 L 104 132 110 132 L 116 132 116 130 L 116 128 120 128 L 124 128 124 126 L 124 124 126 124 L 128 124 128 126 L 128 128 130 128 L 132 128 132 124 L 132 120 130 120 L 128 120 128 118 L 128 116 126 116 L 124 116 124 118 L 124 120 122 120 L 120 120 120 122 L 120 124 118 124 L 116 124 116 122 L 116 120 112 120 L 108 120 108 122 L 108 124 112 124 L 116 124 116 126 L 116 128 110 128 L 104 128 104 122 L 104 116 112 116 L 120 116 120 114 L 120 112 118 112 L 116 112 116 110 L 116 108 118 108 L 120 108 120 104 L 120 100 124 100 L 128 100 128 98 L 128 96 126 96 L 124 96 124 94 L 124 92 122 92 L 120 92 120 90 L 120 88 124 88 L 128 88 128 90 L 128 92 130 92 L 132 92 132 90 L 132 88 130 88 L 128 88 128 86 L 128 84 124 84 L 120 84 120 82 L 120 80 122 80 L 124 80 124 76 L 124 72 126 72 L 128 72 128 76 L 128 80 130 80 L 132 80 132 70 L 132 60 130 60 L 128 60 128 64 L 128 68 120 68 L 112 68 112 66 L 112 64 110 64 L 108 64 108 62 L 108 60 106 60 L 104 60 104 68 L 104 76 102 76 L 100 76 100 68 L 100 60 92 60 L 84 60 84 62 L 84 64 90 64 L 96 64 96 68 L 96 72 94 72 L 92 72 92 70 L 92 68 88 68 L 84 68 84 70 L 84 72 86 72 L 88 72 88 76 L 88 80 90 80 L 92 80 92 78 L 92 76 96 76 L 100 76 100 78 L 100 80 104 80 L 108 80 108 74 L 108 68 110 68 L 112 68 112 70 L 112 72 116 72 L 120 72 120 76 L 120 80 118 80 L 116 80 116 78 L 116 76 114 76 L 112 76 112 78 L 112 80 114 80 L 116 80 116 82 L 116 84 114 84 L 112 84 112 90 L 112 96 106 96 L 100 96 100 94 L 100 92 104 92 L 108 92 108 90 L 108 88 106 88 L 104 88 104 86 L 104 84 98 84 L 92 84 92 88 L 92 92 90 92 L 88 92 88 88 L 88 84 86 84 L 84 84 84 86 L 84 88 82 88 L 80 88 80 90 L 80 92 78 92 L 76 92 76 90 L 76 88 72 88 L 68 88 68 92 L 68 96 64 96 L 60 96 60 94 L 60 92 62 92 L 64 92 64 90 L 64 88 60 88 L 56 88 56 84 L 56 80 58 80 L 60 80 60 82 L 60 84 62 84 L 64 84 64 82 L 64 80 62 80 L 60 80 60 78 L 60 76 62 76 L 64 76 64 74 L 64 72 66 72 L 68 72 68 70 L 68 68 72 68 L 76 68 76 66 L 76 64 78 64 L 80 64 80 62 L 80 60 78 60 L 76 60 76 56 L 76 52 80 52 L 84 52 84 54 L 84 56 90 56 L 96 56 96 54 L 96 52 94 52 L 92 52 92 50 L 92 48 94 48 L 96 48 96 46 L 96 44 98 44 L 100 44 100 40 L 100 36 98 36 L 96 36 96 34 L 96 32 98 32 L 100 32 100 28 L 100 24 98 24 L 96 24 96 22 L 96 20 94 20 L 92 20 92 18 L 92 16 90 16 L 88 16 88 18 L 88 20 86 20 L 84 20 84 22 L 84 24 86 24 L 88 24 88 26 L 88 28 86 28 L 84 28 84 34 L 84 40 82 40 L 80 40 80 42 L 80 44 82 44 L 84 44 84 42 L 84 40 86 40 L 88 40 88 42 L 88 44 90 44 L 92 44 92 46 L 92 48 84 48 L 76 48 76 42 L 76 36 78 36 L 80 36 80 32 L 80 28 78 28 L 76 28 76 26 L 76 24 78 24 L 80 24 80 20 L 80 16 74 16 L 68 16 68 22 L 68 28 70 28 L 72 28 72 30 L 72 32 70 32 L 68 32 68 34 L 68 36 66 36 L 64 36 64 32 L 64 28 62 28 L 60 28 60 30 L 60 32 58 32 L 56 32 56 30 L 56 28 54 28 L 52 28 52 24 L 52 20 58 20 L 64 20 64 18 L 64 16 56 16 L 48 16 48 22 M 104 30 L 104 44 118 44 L 132 44 132 30 L 132 16 118 16 L 104 16 104 30 M 20 30 L 20 40 30 40 L 40 40 40 30 L 40 20 30 20 L 20 20 20 30 M 88 22 L 88 24 90 24 L 92 24 92 22 L 92 20 90 20 L 88 20 88 22 M 108 30 L 108 40 118 40 L 128 40 128 30 L 128 20 118 20 L 108 20 108 30 M 24 30 L 24 36 30 36 L 36 36 36 30 L 36 24 30 24 L 24 24 24 30 M 112 30 L 112 36 118 36 L 124 36 124 30 L 124 24 118 24 L 112 24 112 30 M 88 34 L 88 40 90 40 L 92 40 92 42 L 92 44 94 44 L 96 44 96 40 L 96 36 94 36 L 92 36 92 34 L 92 32 94 32 L 96 32 96 30 L 96 28 92 28 L 88 28 88 34 M 72 34 L 72 36 74 36 L 76 36 76 34 L 76 32 74 32 L 72 32 72 34 M 56 38 L 56 40 54 40 L 52 40 52 42 L 52 44 54 44 L 56 44 56 42 L 56 40 58 40 L 60 40 60 46 L 60 52 56 52 L 52 52 52 56 L 52 60 50 60 L 48 60 48 56 L 48 52 42 52 L 36 52 36 54 L 36 56 34 56 L 32 56 32 58 L 32 60 28 60 L 24 60 24 64 L 24 68 26 68 L 28 68 28 70 L 28 72 26 72 L 24 72 24 74 L 24 76 30 76 L 36 76 36 72 L 36 68 38 68 L 40 68 40 70 L 40 72 42 72 L 44 72 44 70 L 44 68 42 68 L 40 68 40 66 L 40 64 42 64 L 44 64 44 62 L 44 60 46 60 L 48 60 48 62 L 48 64 52 64 L 56 64 56 62 L 56 60 60 60 L 64 60 64 62 L 64 64 68 64 L 72 64 72 58 L 72 52 70 52 L 68 52 68 50 L 68 48 70 48 L 72 48 72 44 L 72 40 70 40 L 68 40 68 42 L 68 44 66 44 L 64 44 64 40 L 64 36 60 36 L 56 36 56 38 M 16 50 L 16 52 18 52 L 20 52 20 50 L 20 48 18 48 L 16 48 16 50 M 100 50 L 100 52 102 52 L 104 52 104 50 L 104 48 102 48 L 100 48 100 50 M 112 50 L 112 52 110 52 L 108 52 108 54 L 108 56 110 56 L 112 56 112 58 L 112 60 114 60 L 116 60 116 62 L 116 64 118 64 L 120 64 120 62 L 120 60 122 60 L 124 60 124 58 L 124 56 126 56 L 128 56 128 54 L 128 52 130 52 L 132 52 132 50 L 132 48 126 48 L 120 48 120 54 L 120 60 118 60 L 116 60 116 54 L 116 48 114 48 L 112 48 112 50 M 60 54 L 60 56 64 56 L 68 56 68 54 L 68 52 64 52 L 60 52 60 54 M 36 58 L 36 60 34 60 L 32 60 32 62 L 32 64 36 64 L 40 64 40 62 L 40 60 42 60 L 44 60 44 58 L 44 56 40 56 L 36 56 36 58 M 52 74 L 52 80 54 80 L 56 80 56 74 L 56 68 54 68 L 52 68 52 74 M 60 70 L 60 72 62 72 L 64 72 64 70 L 64 68 62 68 L 60 68 60 70 M 72 74 L 72 76 70 76 L 68 76 68 78 L 68 80 72 80 L 76 80 76 82 L 76 84 78 84 L 80 84 80 82 L 80 80 82 80 L 84 80 84 78 L 84 76 82 76 L 80 76 80 74 L 80 72 76 72 L 72 72 72 74 M 76 78 L 76 80 78 80 L 80 80 80 78 L 80 76 78 76 L 76 76 76 78 M 116 86 L 116 88 118 88 L 120 88 120 86 L 120 84 118 84 L 116 84 116 86 M 36 92 L 36 96 34 96 L 32 96 32 98 L 32 100 34 100 L 36 100 36 98 L 36 96 38 96 L 40 96 40 98 L 40 100 42 100 L 44 100 44 98 L 44 96 42 96 L 40 96 40 94 L 40 92 44 92 L 48 92 48 90 L 48 88 42 88 L 36 88 36 92 M 72 104 L 72 116 74 116 L 76 116 76 120 L 76 124 78 124 L 80 124 80 120 L 80 116 78 116 L 76 116 76 114 L 76 112 78 112 L 80 112 80 110 L 80 108 78 108 L 76 108 76 106 L 76 104 78 104 L 80 104 80 102 L 80 100 82 100 L 84 100 84 98 L 84 96 86 96 L 88 96 88 98 L 88 100 90 100 L 92 100 92 98 L 92 96 94 96 L 96 96 96 94 L 96 92 94 92 L 92 92 92 94 L 92 96 90 96 L 88 96 88 94 L 88 92 86 92 L 84 92 84 94 L 84 96 80 96 L 76 96 76 94 L 76 92 74 92 L 72 92 72 104 M 52 98 L 52 100 56 100 L 60 100 60 98 L 60 96 56 96 L 52 96 52 98 M 64 102 L 64 104 58 104 L 52 104 52 108 L 52 112 54 112 L 56 112 56 110 L 56 108 58 108 L 60 108 60 110 L 60 112 62 112 L 64 112 64 110 L 64 108 66 108 L 68 108 68 104 L 68 100 66 100 L 64 100 64 102 M 100 106 L 100 112 106 112 L 112 112 112 106 L 112 100 106 100 L 100 100 100 106 M 16 118 L 16 132 30 132 L 44 132 44 118 L 44 104 30 104 L 16 104 16 118 M 88 108 L 88 112 86 112 L 84 112 84 114 L 84 116 88 116 L 92 116 92 110 L 92 104 90 104 L 88 104 88 108 M 104 106 L 104 108 106 108 L 108 108 108 106 L 108 104 106 104 L 104 104 104 106 M 20 118 L 20 128 30 128 L 40 128 40 118 L 40 108 30 108 L 20 108 20 118 M 124 110 L 124 112 128 112 L 132 112 132 110 L 132 108 128 108 L 124 108 124 110 M 24 118 L 24 124 30 124 L 36 124 36 118 L 36 112 30 112 L 24 112 24 118 M 96 118 L 96 120 98 120 L 100 120 100 118 L 100 116 98 116 L 96 116 96 118 M 88 126 L 88 128 86 128 L 84 128 84 130 L 84 132 88 132 L 92 132 92 128 L 92 124 90 124 L 88 124 88 126 M 64 130 L 64 132 66 132 L 68 132 68 130 L 68 128 66 128 L 64 128 64 130" stroke="none" fill="#fcfcfc" fill-rule="evenodd"/></svg>